<svg xmlns="http://www.w3.org/2000/svg" version="1.1" xmlns:xlink="http://www.w3.org/1999/xlink" xmlns:svgjs="http://svgjs.dev/svgjs" width="1000" height="186" viewBox="0 0 1000 186"><g transform="matrix(1,0,0,1,-0.6060606060606801,-0.005433373851758461)"><svg viewBox="0 0 396 74" data-background-color="#111111" preserveAspectRatio="xMidYMid meet" height="186" width="1000" xmlns="http://www.w3.org/2000/svg" xmlns:xlink="http://www.w3.org/1999/xlink"><g id="tight-bounds" transform="matrix(1,0,0,1,0.24000000000003752,0.002161664865752755)"><svg viewBox="0 0 395.5199999999999 73.99567667026847" height="73.99567667026847" width="395.5199999999999"><g><svg viewBox="0 0 395.5199999999999 73.99567667026847" height="73.99567667026847" width="395.5199999999999"><g><svg viewBox="0 0 539.6447273741651 100.959184778504" height="73.99567667026847" width="395.5199999999999"><g transform="matrix(1,0,0,1,0,13.953114538852581)"><svg viewBox="0 0 395.52 73.05295570079883" height="73.05295570079883" width="395.52"><g id="textblocktransform"><svg viewBox="0 0 395.52 73.05295570079883" height="73.05295570079883" width="395.52" id="textblock"><g><svg viewBox="0 0 395.52 73.05295570079883" height="73.05295570079883" width="395.52"><g transform="matrix(1,0,0,1,0,0)"><svg width="395.52" viewBox="5.25 -37.849998474121094 206.5399932861328 38.14999771118164" height="73.05295570079883" data-palette-color="#ffffff"><path d="M34.1 0L28.65 0 21.1-10.75Q19.7-10.65 18.9-10.65L18.9-10.65 10.25-10.65 10.25 0 5.25 0 5.25-35 18.9-35Q25.7-35 29.6-31.75 33.5-28.5 33.5-22.8L33.5-22.8Q33.5-18.75 31.5-15.9 29.5-13.05 25.8-11.75L25.8-11.75 34.1 0ZM18.75-14.9Q23.5-14.9 26-16.95 28.5-19 28.5-22.8L28.5-22.8Q28.5-26.6 26-28.63 23.5-30.65 18.75-30.65L18.75-30.65 10.25-30.65 10.25-14.9 18.75-14.9ZM52.85-3.9Q57.6-3.9 60.5-7.1L60.5-7.1 63.1-4Q61.35-1.9 58.67-0.8 56 0.3 52.7 0.3L52.7 0.3Q48.5 0.3 45.25-1.43 42-3.15 40.22-6.25 38.45-9.35 38.45-13.25L38.45-13.25Q38.45-17.1 40.17-20.2 41.9-23.3 44.92-25.03 47.95-26.75 51.75-26.75L51.75-26.75Q55.35-26.75 58.3-25.13 61.25-23.5 63-20.55 64.75-17.6 64.8-13.75L64.8-13.75 43.75-9.65Q44.75-6.9 47.12-5.4 49.5-3.9 52.85-3.9L52.85-3.9ZM51.75-22.7Q49.25-22.7 47.27-21.55 45.3-20.4 44.2-18.32 43.1-16.25 43.1-13.5L43.1-13.5 43.1-13 60.05-16.2Q59.4-19.1 57.15-20.9 54.9-22.7 51.75-22.7L51.75-22.7ZM89.75-26.5L94.45-26.5 82.85 0 77.95 0 66.35-26.5 71.35-26.5 80.45-5.25 89.75-26.5ZM98.94 0L98.94-26.5 103.74-26.5 103.74 0 98.94 0ZM101.34-31.6Q99.94-31.6 99.02-32.5 98.09-33.4 98.09-34.7L98.09-34.7Q98.09-36 99.02-36.93 99.94-37.85 101.34-37.85L101.34-37.85Q102.74-37.85 103.67-36.98 104.59-36.1 104.59-34.8L104.59-34.8Q104.59-33.45 103.67-32.52 102.74-31.6 101.34-31.6L101.34-31.6ZM124.84-3.9Q129.59-3.9 132.49-7.1L132.49-7.1 135.09-4Q133.34-1.9 130.67-0.8 127.99 0.3 124.69 0.3L124.69 0.3Q120.49 0.3 117.24-1.43 113.99-3.15 112.22-6.25 110.44-9.35 110.44-13.25L110.44-13.25Q110.44-17.1 112.17-20.2 113.89-23.3 116.92-25.03 119.94-26.75 123.74-26.75L123.74-26.75Q127.34-26.75 130.29-25.13 133.24-23.5 134.99-20.55 136.74-17.6 136.79-13.75L136.79-13.75 115.74-9.65Q116.74-6.9 119.12-5.4 121.49-3.9 124.84-3.9L124.84-3.9ZM123.74-22.7Q121.24-22.7 119.27-21.55 117.29-20.4 116.19-18.32 115.09-16.25 115.09-13.5L115.09-13.5 115.09-13 132.04-16.2Q131.39-19.1 129.14-20.9 126.89-22.7 123.74-22.7L123.74-22.7ZM179.09-26.5L183.89-26.5 183.89-11.85Q183.89-6 180.99-2.85 178.09 0.3 172.59 0.3L172.59 0.3Q166.09 0.3 163.59-4.45L163.59-4.45Q162.29-2.05 160.06-0.88 157.84 0.3 154.54 0.3L154.54 0.3Q148.99 0.3 146.11-2.85 143.24-6 143.24-11.85L143.24-11.85 143.24-26.5 148.04-26.5 148.04-12.3Q148.04-8.05 149.59-6.03 151.14-4 154.54-4L154.54-4Q157.94-4 159.56-6.05 161.19-8.1 161.19-12.3L161.19-12.3 161.19-26.5 165.99-26.5 165.99-12.3Q165.99-8.1 167.61-6.05 169.24-4 172.64-4L172.64-4Q175.99-4 177.54-6.03 179.09-8.05 179.09-12.3L179.09-12.3 179.09-26.5ZM200.34 0.3Q197.09 0.3 194.09-0.58 191.09-1.45 189.39-2.8L189.39-2.8 191.39-6.6Q193.14-5.35 195.64-4.6 198.14-3.85 200.69-3.85L200.69-3.85Q206.99-3.85 206.99-7.45L206.99-7.45Q206.99-8.65 206.14-9.35 205.29-10.05 204.01-10.38 202.74-10.7 200.39-11.1L200.39-11.1Q197.19-11.6 195.16-12.25 193.14-12.9 191.69-14.45 190.24-16 190.24-18.8L190.24-18.8Q190.24-22.4 193.24-24.58 196.24-26.75 201.29-26.75L201.29-26.75Q203.94-26.75 206.59-26.1 209.24-25.45 210.94-24.35L210.94-24.35 208.89-20.55Q205.64-22.65 201.24-22.65L201.24-22.65Q198.19-22.65 196.59-21.65 194.99-20.65 194.99-19L194.99-19Q194.99-17.7 195.89-16.95 196.79-16.2 198.11-15.85 199.44-15.5 201.84-15.05L201.84-15.05Q205.04-14.5 207.01-13.88 208.99-13.25 210.39-11.75 211.79-10.25 211.79-7.55L211.79-7.55Q211.79-3.95 208.71-1.83 205.64 0.3 200.34 0.3L200.34 0.3Z" opacity="1" transform="matrix(1,0,0,1,0,0)" fill="#ffffff" class="wordmark-text-0" data-fill-palette-color="primary" id="text-0"></path></svg></g></svg></g></svg></g></svg></g><g transform="matrix(1,0,0,1,412.7660495700218,0)"><svg viewBox="0 0 126.87867780414336 100.959184778504" height="100.959184778504" width="126.87867780414336"><g><svg xmlns="http://www.w3.org/2000/svg" xmlns:xlink="http://www.w3.org/1999/xlink" version="1.1" x="0" y="0" viewBox="15 25 70 55.70000457763672" enable-background="new 0 0 100 100" xml:space="preserve" height="100.959184778504" width="126.87867780414336" class="icon-icon-0" data-fill-palette-color="accent" id="icon-0"><path d="M50 25c-19.3 0-35 11.2-35 25 0 6.5 3.5 12.7 9.7 17.3l-5.2 9.8c-0.5 1-0.3 2.2 0.4 2.9 0.5 0.5 1.1 0.7 1.8 0.7 0.4 0 0.8-0.1 1.2-0.3l14-7.3C41 74.4 45.5 75 50 75c19.3 0 35-11.2 35-25S69.3 25 50 25zM50 70c-4.4 0-8.7-0.6-12.7-1.9-0.6-0.2-1.3-0.1-1.9 0.2l-7.8 4.1 2.5-4.7c0.6-1.1 0.2-2.6-0.9-3.3-6-3.8-9.2-8.9-9.2-14.4 0-11 13.5-20 30-20s30 9 30 20S66.5 70 50 70z" fill="#ff4136" data-fill-palette-color="accent"></path><circle cx="50" cy="50" r="5.0" fill="#ff4136" data-fill-palette-color="accent"></circle><circle cx="62.5" cy="50" r="5.0" fill="#ff4136" data-fill-palette-color="accent"></circle><circle cx="37.5" cy="50" r="5.0" fill="#ff4136" data-fill-palette-color="accent"></circle></svg></g></svg></g></svg></g></svg></g><defs></defs></svg><rect width="395.5199999999999" height="73.99567667026847" fill="none" stroke="none" visibility="hidden"></rect></g></svg></g></svg>